<?xml version="1.0" encoding="UTF-8"?><svg xmlns="http://www.w3.org/2000/svg" xmlns:xlink="http://www.w3.org/1999/xlink" fill-opacity="1" color-rendering="auto" color-interpolation="auto" stroke="black" text-rendering="auto" stroke-linecap="square" width="1399" stroke-miterlimit="10" stroke-opacity="1" shape-rendering="auto" fill="black" stroke-dasharray="none" font-weight="normal" stroke-width="1" height="310" font-family="'Dialog'" font-style="normal" stroke-linejoin="miter" font-size="12" stroke-dashoffset="0" image-rendering="auto">
  <!--Generated by ySVG-->
  <defs id="genericDefs"/>
  <g>
    <defs id="defs1">
      <clipPath clipPathUnits="userSpaceOnUse" id="clipPath1">
        <path d="M0 0 L1399 0 L1399 310 L0 310 L0 0 Z"/>
      </clipPath>
      <clipPath clipPathUnits="userSpaceOnUse" id="clipPath2">
        <path d="M-15 -15 L1384 -15 L1384 295 L-15 295 L-15 -15 Z"/>
      </clipPath>
    </defs>
    <g fill="white" transform="translate(15,15)" stroke="white">
      <rect x="-15" width="1399" height="310" y="-15" clip-path="url(#clipPath2)" stroke="none"/>
    </g>
    <g fill="rgb(255,204,153)" transform="matrix(1,0,0,1,15,15)" stroke="rgb(255,204,153)">
      <rect x="0" width="325.3789" height="30" y="125" clip-path="url(#clipPath2)" stroke="none"/>
    </g>
    <g stroke-miterlimit="1.45" font-family="'DejaVu Sans'" transform="matrix(1,0,0,1,15,15)" stroke-linecap="butt">
      <text x="7" xml:space="preserve" y="144.1562" clip-path="url(#clipPath2)" stroke="none">com.anrisoftware.globalpom:globalpom-utils:jar:1.4</text>
      <rect fill="none" x="0" width="325.3789" height="30" y="125" clip-path="url(#clipPath2)"/>
    </g>
    <g fill="rgb(255,204,153)" transform="matrix(1,0,0,1,15,15)" stroke="rgb(255,204,153)">
      <rect x="370.3789" width="377.416" height="30" y="50" clip-path="url(#clipPath2)" stroke="none"/>
    </g>
    <g stroke-miterlimit="1.45" font-family="'DejaVu Sans'" transform="matrix(1,0,0,1,15,15)" stroke-linecap="butt">
      <text x="377.3789" xml:space="preserve" y="69.1562" clip-path="url(#clipPath2)" stroke="none">com.anrisoftware.globalpom:globalpom-log:jar:1.10:compile</text>
      <rect fill="none" x="370.3789" width="377.416" height="30" y="50" clip-path="url(#clipPath2)"/>
    </g>
    <g fill="rgb(204,204,255)" transform="matrix(1,0,0,1,15,15)" stroke="rgb(204,204,255)">
      <rect x="370.3789" width="238.7598" height="30" y="250" clip-path="url(#clipPath2)" stroke="none"/>
    </g>
    <g stroke-miterlimit="1.45" font-family="'DejaVu Sans'" transform="matrix(1,0,0,1,15,15)" stroke-linecap="butt">
      <text x="377.3789" xml:space="preserve" y="269.1562" clip-path="url(#clipPath2)" stroke="none">javax.inject:javax.inject:jar:1:compile</text>
      <rect fill="none" x="370.3789" width="238.7598" height="30" y="250" clip-path="url(#clipPath2)"/>
    </g>
    <g fill="rgb(204,204,255)" transform="matrix(1,0,0,1,15,15)" stroke="rgb(204,204,255)">
      <rect x="370.3789" width="406.7773" height="30" y="200" clip-path="url(#clipPath2)" stroke="none"/>
    </g>
    <g stroke-miterlimit="1.45" font-family="'DejaVu Sans'" transform="matrix(1,0,0,1,15,15)" stroke-linecap="butt">
      <text x="377.3789" xml:space="preserve" y="219.1562" clip-path="url(#clipPath2)" stroke="none">com.google.inject.extensions:guice-assistedinject:jar:3.0:compile</text>
      <rect fill="none" x="370.3789" width="406.7773" height="30" y="200" clip-path="url(#clipPath2)"/>
    </g>
    <g fill="rgb(204,204,255)" transform="matrix(1,0,0,1,15,15)" stroke="rgb(204,204,255)">
      <rect x="822.1562" width="251.5625" height="30" y="200" clip-path="url(#clipPath2)" stroke="none"/>
    </g>
    <g stroke-miterlimit="1.45" font-family="'DejaVu Sans'" transform="matrix(1,0,0,1,15,15)" stroke-linecap="butt">
      <text x="829.1562" xml:space="preserve" y="219.1562" clip-path="url(#clipPath2)" stroke="none">com.google.inject:guice:jar:3.0:compile</text>
      <rect fill="none" x="822.1562" width="251.5625" height="30" y="200" clip-path="url(#clipPath2)"/>
    </g>
    <g fill="rgb(204,204,255)" transform="matrix(1,0,0,1,15,15)" stroke="rgb(204,204,255)">
      <rect x="1118.7188" width="249.3887" height="30" y="200" clip-path="url(#clipPath2)" stroke="none"/>
    </g>
    <g stroke-miterlimit="1.45" font-family="'DejaVu Sans'" transform="matrix(1,0,0,1,15,15)" stroke-linecap="butt">
      <text x="1125.7188" xml:space="preserve" y="219.1562" clip-path="url(#clipPath2)" stroke="none">aopalliance:aopalliance:jar:1.0:compile</text>
      <rect fill="none" x="1118.7188" width="249.3887" height="30" y="200" clip-path="url(#clipPath2)"/>
    </g>
    <g fill="rgb(204,204,255)" transform="matrix(1,0,0,1,15,15)" stroke="rgb(204,204,255)">
      <rect x="370.3789" width="338.5156" height="30" y="150" clip-path="url(#clipPath2)" stroke="none"/>
    </g>
    <g stroke-miterlimit="1.45" font-family="'DejaVu Sans'" transform="matrix(1,0,0,1,15,15)" stroke-linecap="butt">
      <text x="377.3789" xml:space="preserve" y="169.1562" clip-path="url(#clipPath2)" stroke="none">org.apache.commons:commons-lang3:jar:3.1:compile</text>
      <rect fill="none" x="370.3789" width="338.5156" height="30" y="150" clip-path="url(#clipPath2)"/>
    </g>
    <g fill="rgb(255,204,153)" transform="matrix(1,0,0,1,15,15)" stroke="rgb(255,204,153)">
      <rect x="370.3789" width="505.3965" height="30" y="0" clip-path="url(#clipPath2)" stroke="none"/>
    </g>
    <g stroke-miterlimit="1.45" font-family="'DejaVu Sans'" transform="matrix(1,0,0,1,15,15)" stroke-linecap="butt">
      <text x="377.3789" xml:space="preserve" y="19.1562" clip-path="url(#clipPath2)" stroke="none">com.anrisoftware.propertiesutils:propertiesutils-contextproperties:jar:1.6:compile</text>
      <rect fill="none" x="370.3789" width="505.3965" height="30" y="0" clip-path="url(#clipPath2)"/>
    </g>
    <g fill="rgb(204,204,255)" transform="matrix(1,0,0,1,15,15)" stroke="rgb(204,204,255)">
      <rect x="370.3789" width="219.5234" height="30" y="100" clip-path="url(#clipPath2)" stroke="none"/>
    </g>
    <g stroke-miterlimit="1.45" font-family="'DejaVu Sans'" transform="matrix(1,0,0,1,15,15)" stroke-linecap="butt">
      <text x="377.3789" xml:space="preserve" y="119.1562" clip-path="url(#clipPath2)" stroke="none">org.slf4j:slf4j-api:jar:1.7.5:compile</text>
      <rect fill="none" x="370.3789" width="219.5234" height="30" y="100" clip-path="url(#clipPath2)"/>
      <path fill="none" d="M162.6895 124.958 L162.6895 81.9706 L179.66 65 L370.3323 65" clip-path="url(#clipPath2)"/>
      <path fill="none" d="M56.2298 155 L56.2298 243.7868 L77.443 265 L370.3431 265" clip-path="url(#clipPath2)"/>
      <path fill="none" d="M162.6895 155 L162.6895 198.0294 L179.66 215 L370.3323 215" clip-path="url(#clipPath2)"/>
      <path fill="none" d="M777.1562 215 L822.1123 215" clip-path="url(#clipPath2)"/>
      <path fill="none" d="M1073.7188 215 L1118.6748 215" clip-path="url(#clipPath2)"/>
      <path fill="none" d="M269.1491 155 L269.1491 166.7574 L273.3917 171 L370.3315 171" clip-path="url(#clipPath2)"/>
      <path fill="none" d="M56.2298 124.9566 L56.2298 36.2132 L77.443 15 L370.3431 15" clip-path="url(#clipPath2)"/>
      <path fill="none" d="M269.1491 124.9541 L269.1491 113.2426 L273.3917 109 L370.3315 109" clip-path="url(#clipPath2)"/>
    </g>
  </g>
</svg>
